<svg width="81" height="79" viewBox="0 0 81 79" fill="none" xmlns="http://www.w3.org/2000/svg">
<path d="M40.5 7.5C31.7 7.5 27.8333 15.5 27 19.5H20C21.1667 13 26.9 0 40.5 0C54.1 0 59.8333 13 61 19.5H54C53.1667 15.5 49.3 7.5 40.5 7.5Z" fill="#1F2A35"/>
<path d="M0 41.1986V20C0 19.4477 0.447715 19 0.999999 19H80C80.5523 19 81 19.4477 81 20V41.1986C81 43.0621 80.8585 44.923 80.3706 46.7215C77.1017 58.7711 65.6917 78.5 40.5 78.5C15.3083 78.5 3.89833 58.7711 0.629441 46.7215C0.141512 44.923 0 43.0621 0 41.1986Z" fill="#34DCA3"/>
<path d="M26 44H18C19.1667 50.5 25.3 63.5 40.5 63.5C55.7 63.5 61.8333 50.5 63 44H55C54.3333 47.8333 50.5 55.5 40.5 55.5C30.5 55.5 26.6667 47.8333 26 44Z" fill="#F4F6F5"/>
</svg>
