<svg width="285" height="79" viewBox="0 0 285 79" fill="none" xmlns="http://www.w3.org/2000/svg">
<path d="M40.5 7.5C31.7 7.5 27.8333 15.5 27 19.5H20C21.1667 13 26.9 0 40.5 0C54.1 0 59.8333 13 61 19.5H54C53.1667 15.5 49.3 7.5 40.5 7.5Z" fill="#1F2A35"/>
<path d="M0 41.1986V20C0 19.4477 0.447715 19 0.999999 19H80C80.5523 19 81 19.4477 81 20V41.1986C81 43.0621 80.8585 44.923 80.3706 46.7215C77.1017 58.7711 65.6917 78.5 40.5 78.5C15.3083 78.5 3.89833 58.7711 0.629441 46.7215C0.141512 44.923 0 43.0621 0 41.1986Z" fill="#34DCA3"/>
<path d="M26 44H18C19.1667 50.5 25.3 63.5 40.5 63.5C55.7 63.5 61.8333 50.5 63 44H55C54.3333 47.8333 50.5 55.5 40.5 55.5C30.5 55.5 26.6667 47.8333 26 44Z" fill="#F4F6F5"/>
<path d="M107.368 30.856H116.712V26.6H103.08V49H116.712V44.744H107.368V39.816H116.712V35.56H107.368V30.856Z" fill="#1F2A35"/>
<path d="M119.561 38.28V42.12H128.841V38.28H119.561Z" fill="#1F2A35"/>
<path d="M141.965 42.984C141.741 44.552 140.653 45.512 138.893 45.512C136.877 45.512 135.757 44.232 135.757 42.28V39.08C135.757 37.128 136.877 35.848 138.893 35.848C140.653 35.848 141.709 36.84 141.965 38.376H146.189C145.741 34.504 143.181 32.04 138.893 32.04C134.157 32.04 131.533 35.048 131.533 39.624V41.736C131.533 46.312 134.157 49.32 138.893 49.32C143.181 49.32 145.741 46.856 146.189 42.984H141.965Z" fill="#1F2A35"/>
<path d="M148.752 41.736C148.752 46.312 151.376 49.32 156.112 49.32C160.848 49.32 163.472 46.312 163.472 41.736V39.624C163.472 35.048 160.848 32.04 156.112 32.04C151.376 32.04 148.752 35.048 148.752 39.624V41.736ZM159.248 42.28C159.248 44.232 158.128 45.512 156.112 45.512C154.096 45.512 152.976 44.232 152.976 42.28V39.08C152.976 37.128 154.096 35.848 156.112 35.848C158.128 35.848 159.248 37.128 159.248 39.08V42.28Z" fill="#1F2A35"/>
<path d="M181.323 39.368C181.323 37.16 182.859 36.168 184.363 36.168C185.867 36.168 187.403 37.16 187.403 39.368V49H191.627V39.208C191.627 34.376 188.555 32.04 184.363 32.04C182.091 32.04 180.395 32.776 179.211 34.216C178.059 32.68 176.491 32.04 174.763 32.04C173.323 32.04 171.819 32.744 171.019 33.864V32.488H166.795V49H171.019V39.368C171.019 37.16 172.555 36.168 174.059 36.168C175.563 36.168 177.099 37.16 177.099 39.368V49H181.323V39.368Z" fill="#1F2A35"/>
<path d="M209.76 39.368C209.76 37.16 211.297 36.168 212.801 36.168C214.305 36.168 215.84 37.16 215.84 39.368V49H220.064V39.208C220.064 34.376 216.993 32.04 212.801 32.04C210.529 32.04 208.832 32.776 207.648 34.216C206.496 32.68 204.929 32.04 203.201 32.04C201.76 32.04 200.256 32.744 199.456 33.864V32.488H195.232V49H199.456V39.368C199.456 37.16 200.993 36.168 202.497 36.168C204.001 36.168 205.536 37.16 205.536 39.368V49H209.76V39.368Z" fill="#1F2A35"/>
<path d="M237.878 42.184V39.624C237.878 35.048 235.254 32.04 230.518 32.04C225.782 32.04 223.158 35.048 223.158 39.624V41.736C223.158 46.312 225.782 49.32 230.518 49.32C234.55 49.32 237.046 47.144 237.718 43.688H233.43C233.014 44.808 231.99 45.512 230.518 45.512C228.502 45.512 227.382 44.232 227.382 42.28V42.184H237.878ZM230.518 35.848C232.406 35.848 233.494 36.936 233.622 38.664V38.696H227.382V38.664C227.542 36.968 228.63 35.848 230.518 35.848Z" fill="#1F2A35"/>
<path d="M245.394 39.528C245.394 37.288 246.93 36.328 248.53 36.328H250.514V32.2H249.234C247.282 32.2 245.874 33.192 245.394 34.28V32.488H241.17V49H245.394V39.528Z" fill="#1F2A35"/>
<path d="M262.684 42.984C262.46 44.552 261.372 45.512 259.612 45.512C257.596 45.512 256.476 44.232 256.476 42.28V39.08C256.476 37.128 257.596 35.848 259.612 35.848C261.372 35.848 262.428 36.84 262.684 38.376H266.908C266.46 34.504 263.9 32.04 259.612 32.04C254.876 32.04 252.252 35.048 252.252 39.624V41.736C252.252 46.312 254.876 49.32 259.612 49.32C263.9 49.32 266.46 46.856 266.908 42.984H262.684Z" fill="#1F2A35"/>
<path d="M284.19 42.184V39.624C284.19 35.048 281.567 32.04 276.831 32.04C272.095 32.04 269.47 35.048 269.47 39.624V41.736C269.47 46.312 272.095 49.32 276.831 49.32C280.863 49.32 283.358 47.144 284.03 43.688H279.742C279.326 44.808 278.303 45.512 276.831 45.512C274.815 45.512 273.694 44.232 273.694 42.28V42.184H284.19ZM276.831 35.848C278.719 35.848 279.807 36.936 279.935 38.664V38.696H273.694V38.664C273.854 36.968 274.943 35.848 276.831 35.848Z" fill="#1F2A35"/>
<path d="M110.32 70H113.22L115.8 56H113.1L111.48 65.48L109.82 58H107.22L105.56 65.48L103.94 56H101.24L103.82 70H106.72L108.52 61.88L110.32 70Z" fill="#1F2A35"/>
<path d="M125.67 65.74V64.14C125.67 61.28 124.03 59.4 121.07 59.4C118.11 59.4 116.47 61.28 116.47 64.14V65.46C116.47 68.32 118.11 70.2 121.07 70.2C123.59 70.2 125.15 68.84 125.57 66.68H122.89C122.63 67.38 121.99 67.82 121.07 67.82C119.81 67.82 119.11 67.02 119.11 65.8V65.74H125.67ZM121.07 61.78C122.25 61.78 122.93 62.46 123.01 63.54V63.56H119.11V63.54C119.21 62.48 119.89 61.78 121.07 61.78Z" fill="#1F2A35"/>
<path d="M130.367 69.02C130.827 69.72 131.867 70.2 132.787 70.2C134.887 70.2 136.927 68.76 136.927 65.72V63.88C136.927 60.84 134.887 59.4 132.787 59.4C131.867 59.4 130.827 59.88 130.367 60.58V56H127.727V70H130.367V69.02ZM134.287 65.62C134.287 67.02 133.327 67.62 132.327 67.62C131.327 67.62 130.367 67.02 130.367 65.62V63.98C130.367 62.58 131.327 61.98 132.327 61.98C133.327 61.98 134.287 62.58 134.287 63.98V65.62Z" fill="#1F2A35"/>
<path d="M142.776 70.2C144.936 70.2 146.796 69.32 146.796 67.02C146.796 64.88 145.416 64.1 144.296 63.84L141.976 63.32C141.536 63.22 141.176 63 141.176 62.56C141.196 62.08 141.636 61.78 142.396 61.78C143.056 61.78 143.636 62.08 143.776 62.74H146.476C146.296 60.4 144.576 59.4 142.476 59.4C140.356 59.4 138.536 60.56 138.536 62.58C138.536 64.6 139.956 65.48 141.076 65.74L143.236 66.22C143.856 66.36 144.156 66.6 144.156 67.02C144.156 67.7 143.376 67.82 142.856 67.82C141.996 67.82 141.056 67.46 140.936 66.66H138.296C138.396 69.1 140.636 70.2 142.776 70.2Z" fill="#1F2A35"/>
<path d="M151.188 56H148.548V58.34H151.188V56ZM151.188 59.68H148.548V70H151.188V59.68Z" fill="#1F2A35"/>
<path d="M157.467 67.62C156.827 67.62 156.707 67.28 156.707 66.8V62.06H159.247V59.68H156.707V57.34H154.067V59.68H152.607V62.06H154.067V67.36C154.067 69.02 154.867 70 156.707 70H159.247V67.62H157.467Z" fill="#1F2A35"/>
<path d="M169.83 65.74V64.14C169.83 61.28 168.19 59.4 165.23 59.4C162.27 59.4 160.63 61.28 160.63 64.14V65.46C160.63 68.32 162.27 70.2 165.23 70.2C167.75 70.2 169.31 68.84 169.73 66.68H167.05C166.79 67.38 166.15 67.82 165.23 67.82C163.97 67.82 163.27 67.02 163.27 65.8V65.74H169.83ZM165.23 61.78C166.41 61.78 167.09 62.46 167.17 63.54V63.56H163.27V63.54C163.37 62.48 164.05 61.78 165.23 61.78Z" fill="#1F2A35"/>
</svg>
